<svg xmlns="http://www.w3.org/2000/svg" width="220" height="156" xmlns:v="https://vecta.io/nano"><path d="M0 0h220v156H0V0z" fill="#0d0914"/><path d="M0 0h220v131l-5-2-2 1-.078-2.484-.172-3.266-.141-3.234c-.723-3.576-1.805-4.759-4.609-7.016-2.434-1.217-4.418-1.32-7.125-1.562l-2.758-.254L196 112l-1-4c5.791-1.016 9.458-.963 15 1V96c-3.895-.974-7.065-1.166-11.062-1.187l-3.723-.043c-3.367-.025-3.367-.025-6.215 2.23-2.262-.023-2.262-.023-4.687-.375l-2.449-.336L180 96l2-3-4-1v3h-13v-5l12.488.372 4.242.125 6.122.186 3.713.111c3.213.192 6.274.611 9.435 1.205l-.5-2c-.622-3.731-.564-7.219-.5-11l-3.625-.437C192.899 78.13 189.45 77.604 186 77l.07-2.309c.116-6.618-.493-12.278-2.07-18.691l1-1c6.91 0 10.241 3.266 15 8-2.819-5.863-4.978-8.404-11-11-5.08-.536-8.744.848-13.187 3.125l-2.06 1.042c-10.435 5.525-20.945 12.766-29.182 21.262L142 80h-2v2l6-1h13l1 27c-2.606-3.474-3.138-4.433-4.187-8.187-.856-2.225-.856-2.225-2.812-3.812-5.36-1.037-10.554-1.101-16-1l-1-9h2l-1-2.875c-1.364-4.679-1.175-9.293-1-14.125l-3.219-.184c-18.148-1.064-18.148-1.064-22.969-2.441-1.911-.551-1.911-.551-4.094.367C103 67 103 67 100.449 65.297l-2.762-2.547C83.527 50.204 66.287 38.732 49 31l-1.961-.961c-6.393-2.844-13.535-3.204-20.305-1.453C17.273 32.646 11.924 41.965 8 51l1.652-1.977C15.188 42.608 20.792 36.736 29 34c1.561-.067 3.125-.085 4.688-.062l2.449.027L38 34c1.245 3.735.538 4.713-.875 8.313C34.691 49.17 34.214 55.768 34 63l-3 1c.791 2 .791 2 2 4l3 1c.688 2.063.688 2.063 1 4l4 1 1 5h-2v3c-13.52.358-26.398-.867-40-2V0z" fill="#060213"/><path d="M54.016 31.973c5.604 2.902 10.89 6.322 16.144 9.808l5.059 3.29c8.111 5.272 16.116 10.97 23.403 17.349 1.419 1.241 2.896 2.416 4.379 3.581 2.671-.067 2.671-.067 5-1 3 0 3 0 6.688.875C121.694 67.504 128.864 68.177 136 69l.148 2.266.227 2.984.211 2.953c.399 2.693 1.049 4.467 2.414 6.797l-2 3c-.261 3.119-.261 3.119-.16 6.695l.017 2.003.05 4.237.09 10.916.012 2.154c.026 7.696-.361 15.327-1.008 22.995-2.313-3.469-3.272-6.915-4.383-10.879l-.664-2.327-1.376-4.864-2.12-7.459-1.34-4.725-.644-2.26C124 98.232 124 98.232 124 96h-18l-1.207 5.016c-1.913 7.654-4.188 15.189-6.48 22.734l-1.26 4.172L94 138h5v1l-7 1 .438-6.812.246-3.832C93 126 93 126 94 123l-1.937 1c-3.999 1.306-7.883 1.558-12.062 1-2.381-2.381-2.345-3.107-2.437-6.375.071-3.659.154-4.318 2.75-7.125 4.408-2.46 7.699-2.594 12.688-2.5l1-13c-11.885-1.015-11.885-1.015-22.449 3.555L70 101l-1.582 1.445c-1.183 1.141-2.309 2.342-3.418 3.555l-3-1 5-7-15-1-2 5c-1.262 2.381-2.633 4.676-4 7-3.302-3.302-2.65-7.45-3-12l-16 2 1.785 4.348 2.277 5.715 1.182 2.857c2.185 5.55 3.3 9.253 1.756 15.08h-2l-1-3 1-2H19c-.208-9.35.51-17.779 2-27H4v43l4 1H3v-19H0V80l40 2v-3h2c-.781-2.496-.781-2.496-2-5l-3-1-2-4c-1.627-1.705-3.289-3.379-5-5l4-1-.141-2.641c-.234-7.71.49-13.822 3.266-21.031.992-2.226.992-2.226.875-4.328-8.195-.683-13.239.899-19.582 6.129C14.482 44.627 10.706 48.26 7 52c2.628-9.071 8.984-17.83 17-23 10.195-4.82 20.359-1.69 30.016 2.973z" fill="#0d0915"/><path d="M0 0h44v26l4 1v3l-2.75-1c-6.547-1.833-14.162-2.3-20.5.438C16.499 34.326 11.72 42.434 8 51l1.652-1.977C15.188 42.608 20.792 36.736 29 34c1.561-.067 3.125-.085 4.688-.062l2.449.027L38 34c1.245 3.735.538 4.713-.875 8.313C34.691 49.17 34.214 55.768 34 63l-3 1c.791 2 .791 2 2 4l3 1c.688 2.063.688 2.063 1 4l4 1 1 5h-2v3c-13.52.358-26.398-.867-40-2V0z" fill="#0d0412"/><path d="M137 95h16l4.438 8.313 1.275 2.381 1.221 2.295 1.127 2.111C162 112 162 112 163 115l1-19h15l-.372 12.158-.125 4.119c-.255 8.608-.708 17.147-1.503 25.723l-17 1-8-20-1 21h-15v-2l-16 1-1-6h-8l-1 6-5.187.063-2.918.035c-2.756-.093-5.206-.525-7.895-1.098 1.351-8.008 3.577-15.709 5.941-23.462l1.869-6.187C104.844 98.313 104.844 98.313 106 96h18l2.688 8.375.811 2.509c2.752 8.651 5.064 17.343 7.501 26.116l2-38z" fill="#e2daa4"/><path d="M54.016 31.973c5.604 2.902 10.89 6.322 16.144 9.808l5.059 3.29C82.792 49.993 89.927 55.395 97 61l2.949 2.32c5.434 4.351 10.451 8.907 15.273 13.93 1.671 1.826 1.671 1.826 3.777 2.75v2c-60.065-1.69-60.065-1.69-81-14-4.275-4.799-4.323-9.463-4.301-15.645.414-4.621 1.793-8.636 3.426-12.957.989-2.286.989-2.286.875-4.398-8.195-.683-13.239.899-19.582 6.129C14.482 44.627 10.706 48.26 7 52c2.628-9.071 8.984-17.83 17-23 10.195-4.82 20.359-1.69 30.016 2.973z" fill="#e0d8a8"/><path d="M34 61l2 3c3.598 4.648 8.645 6.079 14 8l-1 2 1 5c.309 3.883.44 7.778.605 11.67.089 4.302.089 4.302 1.395 8.33-1.215 2.383-1.215 2.383-2.937 5.125l-1.715 2.758L46 109c-3.302-3.302-2.65-7.45-3-12l-16 2 1.785 4.348 2.277 5.715 1.182 2.857c2.185 5.55 3.3 9.253 1.756 15.08h-2l-1-3 1-2H19c-.208-9.35.51-17.779 2-27H4v43l4 1H3v-19H0V80l40 2v-3h2c-.781-2.496-.781-2.496-2-5l-3-1-2-4c-1.627-1.705-3.289-3.379-5-5l4-1v-2z" fill="#292124"/><path d="M106 96h18c3.938 12.272 7.64 24.558 11 37l1-14h1v20h13v-7h1v8h-15v-2l-16 1-1-6h-8l-1 6-5.187.063-2.918.035c-2.756-.093-5.206-.525-7.895-1.098 1.351-8.008 3.577-15.709 5.941-23.462l1.869-6.187C104.844 98.313 104.844 98.313 106 96z" fill="#ddd4a2"/><path d="M42 37c3.388 1.28 6.446 2.743 9.547 4.609l2.563 1.539 2.641 1.602 2.594 1.555c4.104 2.475 8.153 5.001 12.125 7.684 4.976 3.352 10.109 6.41 15.281 9.449l2.907 1.714C96.683 69.274 103.768 73.248 111 77c-5.565 1.78-11.362.481-17.062-.125l-3.884-.41c-8.969-.985-17.86-2.295-26.741-3.902l-3.303-.584C42.435 68.631 42.435 68.631 38 63c-.331-2.625-.474-4.94-.437-7.562l.01-2.158C37.73 47.271 39.138 42.315 42 37z" fill="#e41028"/><path d="M206 94l5 2-1 13-9.082-.781c-2.929-.256-2.929-.256-5.918-.219l1 3 1.977.078c5.889.382 9.485 1.082 14.023 4.922 2.091 4.181 1.435 9.447 1 14-2.453 4.993-5.412 7.634-10.25 10.188-7.69 2.272-14.76.308-21.75-3.187l-.062-4.812-.035-2.707C181 127 181 127 182 124l2.938 1c4.36 1.269 8.558 1.184 13.063 1l1-3-2.195-.043c-6.69-.33-10.205-.994-14.805-5.957-1.848-3.697-1.333-7.956-1-12 1.556-4.278 4.766-7.195 8.414-9.832C194.631 92.812 200.421 93.307 206 94z" fill="#e0d8a6"/><path d="M85.25 94.75l3.703.047C92 95 92 95 94 96l-1 13-7.422 1.27c-2.867.812-4.484 1.608-6.578 3.73-.519 2.242-.519 2.242-.312 4.625l.074 2.414c.034 1.962.034 1.962 1.238 2.961l4.25.125 2.328.008c2.874-.1 2.874-.1 7.422-1.133l-1 14c-6.187 2.652-11.494 4.48-18.105 2.309-5.675-2.545-9.326-5.967-12.004-11.672-2.041-6.042-1.681-12.508.734-18.387 4.769-9.37 10.656-14.733 21.625-14.5z" fill="#e0d8a5"/><path d="M10 0h34v26l4 1v3l-2.75-1c-8.117-2.293-15.781-1.734-23.25 2l-2-1c-1.537-.225-3.08-.408-4.625-.562l-2.477-.254L11 29l-1.062-6.625-.598-3.727C8.886 12.445 9.557 6.204 10 0z" fill="#181425"/><path d="M43 97l2 10c2.373-2.373 3.643-3.866 5.188-6.687L52 97c5.152-.09 9.919.153 15 1-1.608 5.127-4.763 8.933-8 13.125l-3.25 4.258-1.453 1.887c-2.498 3.333-3.553 5.27-3.711 9.398l-.117 2.705-.094 2.814-.117 2.85L50 142H35l.027-4.18c-.121-11.936-1.617-21.462-6.531-32.363C27 102 27 102 27 99c5.455-1.385 10.367-2.24 16-2z" fill="#e0d7a4"/><path d="M4 95h17l-2 27h13l-2 15-26 1V95z" fill="#ded6a4"/><path d="M191.02 51.91c4.673 2.696 7.36 5.394 9.98 10.09l-1 2-1.504-1.496C194.009 58.272 191.231 56.13 185 56l.438 1.758C187.586 66.8 187.586 66.8 187 71c-8.273 9.951-26.567 9.533-38.464 10.783A71.03 71.03 0 0 1 140 82c0-2 0-2 1.188-3.305 37.389-32.393 37.389-32.393 49.832-26.785z" fill="#e9d0ab"/><path d="M185 73l1 4 1.793.184 2.395.254 2.355.246L200 79l1 13-14.417-.372-4.906-.125-7.044-.186-2.222-.051c-5.183-.152-5.183-.152-7.41-1.266v5h14v1h-15v21c-5.315-5.315-5.051-12.475-5.098-19.594l.035-5.906.014-3.07L159 81h-5v-1l1.661-.212C170.696 77.859 170.696 77.859 185 73z" fill="#342726"/><path d="M48 73c7.302.6 14.429 1.703 21.625 3.063l3.043.564L80 78v1l-3.375.438c-3.446.346-3.446.346-5.625 1.563l-1-2-.625 7.875-.195 2.262c-.141 1.95-.167 3.908-.18 5.863l2 2h-2l-1 2v-2l-3.684.254-4.754.309-2.432.17c-2.041.129-4.086.203-6.131.268-2.124-2.124-1.375-6.734-1.5-9.687C49.276 83.13 48.99 78.107 48 73z" fill="#0b040f"/><path d="M107 65l3 1h3l5.324.656 3.115.41 3.248.434 3.283.434L136 69l.148 2.266.227 2.984.211 2.953c.399 2.693 1.049 4.467 2.414 6.797l-2 3-.195 7.293.009 2.139.062 6.755.027 4.584L137 119c-7.585-9.633-4.092-28.317-4-40l-3.078.641c-10.599 1.716-10.599 1.716-14.857-.771-3.868-3.172-7.008-6.928-10.064-10.87 1-2 1-2 2-3z" fill="#171220"/><path d="M37 39h4l-1 3c-1.071 4.379-1.362 8.758-1.5 13.25l-.129 2.113C38.275 59.67 38.275 59.67 39 63c16.235 14.527 53.718 13.023 74 15v2h6v2c-60.065-1.69-60.065-1.69-81-14-4.325-4.855-4.265-9.529-4.234-15.77.339-4.675 1.608-8.855 3.234-13.23z" fill="#dcc3a6"/><path d="M178 92h6v3c1.438 1.688 1.438 1.688 3 3l-1.937 1.813c-2.979 3.159-3.254 5.871-3.375 10.063l-.113 2.555c.59 3.562 1.824 5.087 4.426 7.57 3.235 1.237 3.235 1.237 6.75 1.813l3.547.707L199 123l-1 4c-6.199.38-10.448-.165-16-3l-1 13 11 3c-2.46 2.46-4.539 2.822-7.957 3.133C182 143 182 143 179 141.313c-2.135-3.536-2.236-4.547-2.156-8.516l.055-3.233L177 126l.102-3.835.398-12.227.214-6.299.194-5.642L178 92z" fill="#0e090d"/><path d="M180 58c2.624 3.002 3.363 4.771 3.188 8.75l-.082 2.422L183 71c-8.184 3.751-16.085 5.29-25 6.125l-2.637.262L149 78c3.121-3.449 6.372-5.517 10.438-7.75l3.723-2.078 1.915-1.072c5.06-2.89 9.984-6.013 14.925-9.1z" fill="#e41027"/><path d="M16 0h19l1 9c-4.086 4.086-8.592 5.73-14.367 6.188-1.879 0-3.757-.085-5.633-.187V0z" fill="#060315"/><path d="M21 95c1.922.73 1.922.73 4 2 .828 1.988.828 1.988 1.25 4.313l.445 2.422c.329 2.449.464 4.798.305 7.266l5 1 1.563 4.688.879 2.637c.61 2.922.336 4.82-.441 7.676h-2l-1-3 1-2H19c-.207-9.3.462-17.84 2-27z" fill="#1c151a"/><path d="M85 114c1.188 2.063 1.188 2.063 2 4v-4l13-1c1.424 2.848.508 4.221-.434 7.227l-.967 3.125-1.037 3.273-1.025 3.297L94 138h5v1l-7 1 .438-6.812.246-3.832C93 126 93 126 94 123l-1.937 1c-3.999 1.306-7.883 1.558-12.062 1-2-2-2-2-2.195-4.164l.07-2.461.055-2.477L78 114c3.01-.934 3.867-1.044 7 0z" fill="#130f1d"/><path d="M198.75 95.938l2.113.014L206 96l-.062 2.875c-.163 3.032-.163 3.032 1.063 5.125l-1 2c-4.31.166-7.279.232-11-2-2.972-1.263-5.847-2.299-9-3l1-4c3.867-1.266 7.732-1.112 11.75-1.062z" fill="#e5dca6"/><path d="M191.02 51.91c4.673 2.696 7.36 5.394 9.98 10.09l-1 2-1.504-1.496C194.03 58.292 191.231 56 185 56l-2 1-3.375.313c-4.043.767-5.034 1.634-7.625 4.688-3.435 2.29-4.985 2.178-9 2 1.374-4.121 4.132-5.089 7.75-7.062l1.883-1.064c12.144-6.776 12.144-6.776 18.387-3.963z" fill="#c2c2ae"/><path d="M116 127l2 1 1 4h-8l-1 7-5.187.063-2.918.035c-2.75-.093-5.219-.477-7.895-1.098.188-1.812.188-1.812 1-4l5-3 2-2 1 1 2-2v3h9l1-2 1-2z" fill="#e0d9aa"/><path d="M159 81l1 27c-2.273-3.031-3.448-4.866-4.812-8.187-.931-2.098-.931-2.098-2.187-3.812-3.121-1.135-3.121-1.135-6-1l1.938-1.312c2.33-1.6 2.33-1.6 3.063-4.687l2-2v-3l-2-1 7-2z" fill="#140719"/><path d="M183 56l1 3-2.658.305c-3.568.742-5.755 1.878-8.819 3.82l-3.031 1.891L166.375 67l-6.164 3.875-2.741 1.742c-2.218 1.242-3.988 1.931-6.47 2.383l-1-2 5-5 2.813-2.812c3.267-2.242 3.628-2.426 7.25-2.187 4.046.429 4.046.429 6.688-2.375L174 58c3.073-2.017 5.354-2.203 9-2z" fill="#f0cfa2"/><path d="M178 92h6v3c1.438 1.688 1.438 1.688 3 3l-1.937 1.813c-3.651 3.872-3.208 7.645-3.164 12.668.117 2.902.503 5.679 1.102 8.52h-4l.063-2.437c.234-2.496.234-2.496-1.062-3.562-.087-1.708-.107-3.419-.098-5.129l.01-3.135.025-3.299.014-3.311L178 92z" fill="#20171b"/><path d="M91 64l3 1v2l1.949-.457c4.082-.53 7.354-.748 10.848 1.733C110.861 71.875 114.455 75.897 118 80l-3 1-2-1v-2l-2.312-.625C105.496 75.439 100.814 72.727 96 70l-2.266-1.281L89 66l2-2z" fill="#eac9a3"/><path d="M96 98h1v6h2v6h2l-1 4H87l1 4h-3l-2-2h2v-2h-3l-2 4-1-5c3.386-3.131 5.711-3.336 10.25-3.187l3.266.082L95 110c.894-4.078 1.082-7.82 1-12z" fill="#050110"/><path d="M185 55c4.016.227 6.323.427 9.438 3.063L196 60c-4.75 1-4.75 1-7 1l3 2c.188 2.625.188 2.625 0 5l-3 1v2l2 1-1 2h-2v3h-2l.07-2.309c.116-6.618-.493-12.278-2.07-18.691l1-1z" fill="#0d050f"/><path d="M53 39c2.5.813 2.5.813 5 2l3 1v2h2c2 2 2 2 2 5 2.963 1.646 5.632 2.557 9 3l2-1 1 6h3v2l7 2-3 2C59.905 48.311 59.905 48.311 50 41l3-2z" fill="#f2d0a7"/><path d="M195.18 93.637l3.695.051 3.68.012C206 94 206 94 211 96l-1 13-16-3v-1l12 1-1-4 1-6-17 1c3-3 3-3 6.18-3.363z" fill="#d3cda9"/><path d="M26 29v4l3 2-3.375 1.438C18.312 40.068 12.687 46.26 7 52c2.046-7.062 10.265-23 19-23z" fill="#d5cfa9"/><path d="M215 127l5 4-1 2-3-1v8l-1.687.375c-2.398.562-2.398.562-4.75 1.875-2.562.75-2.562.75-5.375-.625L202 140l3-2c3.349-2.45 5.301-4.237 7-8 1.625-1.75 1.625-1.75 3-3z" fill="#26171b"/><path d="M42 37c5.442 2.054 10.214 4.952 15.188 7.938l2.771 1.631 2.646 1.584 2.411 1.437C67 51 67 51 69 54c-3.791-1.45-7.387-3.152-11-5v-2l-2.937-.375L52 46l-1-2h-6l-1 2c-2-1-2-1-3-4v4l2 1h-4l.938-4.437.527-2.496C41 38 41 38 42 37z" fill="#d4151f"/><path d="M60 71l20 1v2l2.563-.035c6.253-.05 12.258.066 18.438 1.035l-2-3c4.234 1.311 8.074 2.944 12 5-3.523 1.15-6.438.926-10.102.547l-3.652-.374-3.872-.423-3.932-.417C79.556 75.25 69.771 73.844 60 72v-1z" fill="#c42726"/><path d="M37 39h4l-.937 3.063C38.406 48.558 38.33 55.331 38 62h-2l-1 2c-2.77-8.311-.973-17.002 2-25z" fill="#d9bb9a"/><path d="M107 65l3 1h3l7.688 1 2.127.289L128 68v1l-3.312.375c-3.761.38-3.761.38-6.687 2.625l-1-1v3h-3v-2l-1.687.813L110 73c-2.75-2.437-2.75-2.437-5-5 1-2 1-2 2-3z" fill="#120f20"/><path d="M34 122h1l.063 7.313.025 2.092c.015 3.144-.086 5.59-1.088 8.596l-5-1-1 4h-2v-5l-4-1h8l1-12 1 2h2v-5z" fill="#0c0408"/><path d="M171 70h2v2h5c-4.723 4.723-13.624 4.528-20 5.125l-2.637.262L149 78c3.161-3.381 5.502-4.773 10-6l2 2c4.802-.2 4.802-.2 8.813-2.562L171 70z" fill="#c32225"/><path d="M96 117l2 1c.663 7.124-1.746 13.309-4 20h5v1l-7 1 .438-6.812.246-3.832C93 126 93 126 94 123l-3-1 5-5z" fill="#1b1521"/><path d="M180.449 53.266L182 54v2l-2.75.75c-3.406 1.31-4.839 2.59-7.25 5.25-3.435 2.29-4.985 2.178-9 2 1.381-4.144 4.195-5.214 7.813-7.25l1.908-1.141c4.684-2.674 4.684-2.674 7.729-2.344z" fill="#d9d2a9"/><path d="M57.383 98.805l2.742.07 2.758.055L65 99l1 2-3 4-5-2 1 4h-3l-1-3-2 2c-.125-2.375-.125-2.375 0-5 2-2 2-2 4.383-2.195z" fill="#e2daa3"/><path d="M94 123l-1 14-5 2-2-2h5l-2-9h-5v-2l-3-1 4.813-1 2.707-.562C91 123 91 123 94 123z" fill="#d2cea9"/><path d="M52 97c5.152-.09 9.919.153 15 1v2H55l-2 6h-2v2h-2l-1 2c-1.017-2.655-1.13-3.692-.004-6.359l1.441-2.391 1.434-2.422L52 97z" fill="#dcd4b2"/><path d="M181 58h4c1.425 4.453 2.537 8.271 2 13-1 1.875-1 1.875-3 3-2.719.241-5.259.135-8 0 3-2 3-2 6-3l.063-4.25.035-2.391c-.094-2.266-.465-4.188-1.098-6.359z" fill="#e6bd9e"/><path d="M134 87h1l.5 7.5.145 2.109c.312 4.808.399 9.573.355 14.391h1v8c-6.368-7.29-4.417-21.713-4-31l1-1z" fill="#221d25"/><path d="M138 96l5 1v3h-2l-.367 3.141-.508 4.109-.238 2.066c-.453 3.591-.981 6.576-2.887 9.684l-.062-8.687-.025-2.475c-.017-4.083.058-7.854 1.088-11.838z" fill="#e6dbb3"/><path d="M168 47h4v3h8l1 3-10 4c-1.129-3.311-2.213-6.59-3-10z" fill="#130417"/><path d="M80 88l7 1-1 4 3 1 1-3 1 2c2.527.656 2.527.656 5 1l-2 4v-2l-14-1v-7zm10 2l2 1z" fill="#252128"/><path d="M94 39l3 1c.25 6.625.25 6.625-2 10l2 1c-1.125 2.972-2.223 5.334-4 8l-2-3 1-3c.307-3.385.509-6.771.719-10.164C93 40 93 40 94 39z" fill="#141120"/><path d="M149 72l2 1 1 3-2 1-1 3h5v1l-14 1v-2l3.938-3.562 2.215-1.879L148 73l1-1z" fill="#c6c1a2"/><path d="M177 61h4l-1 9-10-1 1-4 5-1 1-3z" fill="#e80f2e"/><path d="M23.383 122.805l2.742.07 2.758.055L31 123l-.961 1.797c-1.272 2.698-1.638 5.261-2.039 8.203h-4v-4h2l-1-4h-6c2-2 2-2 4.383-2.195z" fill="#e4dea9"/><path d="M176 124h1v14l-17 1v-2l2.012-.113c7.144-.309 7.144-.309 12.988-3.887.703-2.999.929-5.926 1-9z" fill="#dbd4b2"/><path d="M185 55c4.016.227 6.323.427 9.438 3.063L196 60c-2.763.597-5.16 1-8 1l-2 4-1.062-4.437-.598-2.496L184 56l1-1z" fill="#110d0c"/><path d="M56 31l8 1v2l4 2v5l-5.437-2.75-3.059-1.547C57 35 57 35 56.152 32.797L56 31z" fill="#160910"/><path d="M170 79c-2.565 2.565-4.477 2.54-8 3l.59 1.734c.491 2.712.023 3.996-1.027 6.516l-.871 2.141L160 94h-1V81h-5v-1a98.44 98.44 0 0 1 16-1z" fill="#423229"/><path d="M78 114h2v4l2 1-1 2 5 1 1-2h2l1 3-1 2-4.375.125-2.461.07C80 125 80 125 78 123c-.195-2.164-.195-2.164-.125-4.625l.055-2.477L78 114z" fill="#1f1819"/><path d="M155 90l4 1 1 17c-4.012-5.349-4.012-5.349-3.937-9.375-.058-3.365-.295-4.863-2.062-7.625l1-1z" fill="#0c0310"/><path d="M106 69c4.526 3.678 8.394 7.411 12 12l-5-1v-2l-2.812-.812c-2.95-1.099-4.244-1.812-6.187-4.187l2-4z" fill="#e2d1ae"/><path d="M79 83l1 2h7v3h-7v3l2 1h-2v3h-2l-.625-4.875-.352-2.742L77 85l2-2z" fill="#05020e"/><path d="M151 117c2.93 2.93 3.941 5.68 4.125 9.813L155 129h-2l-1 10h-1v-22z" fill="#080508"/><path d="M154 98c2.296 2.896 4.043 5.817 5.688 9.125l1.324 2.633C162 112 162 112 162 114c-2 0-2 0-3.375-1.312L157 111l-4-3 .5-2.187c.476-2.677.577-5.102.5-7.812z" fill="#d8cea5"/><path d="M79 60c4.394 1.596 8.29 3.78 12.313 6.125l1.955 1.129L98 70c-3.552 1.184-4.698.695-8.187-.437l-2.73-.871L85 68l2-1v-2l-7-1-1-4z" fill="#cc2023"/><path d="M36 62c3.777 1.813 7.373 3.907 11 6v2h3v2c-5.33-.4-10.086-2.315-14-6v-4z" fill="#e4ceae"/><path d="M27 28h8l-1 3 3 2-2.937-.062C31.125 32.644 31.125 32.644 30 34h-5l2-6z" fill="#e5deae"/><path d="M8 95h13l-1 14h-1c-1.193-3.877-2-6.916-2-11-1.497-1.497-2.988-1.332-5.062-1.562L8 96v-1z" fill="#d0c9a5"/><path d="M48 73c5.369.499 10.692 1.022 16 2-2.475 2.475-3.639 2.387-7.062 2.688l-2.723.262L52 78l-1-1-2 2-1-6z" fill="#170c0c"/><path d="M161 63l1 4h-4l.313 2.313C158 72 158 72 155.688 73.875 153 75 153 75 150 74c2.448-5.201 6.402-7.822 11-11z" fill="#e1d1ae"/><path d="M180 58c3.375 4.5 3.375 4.5 3.188 8.75l-.082 2.422L183 71l-4 1 2-1V61c-3.891.584-3.891.584-5.5 2.625L174 65l-4-1 10-6z" fill="#bf2121"/><path d="M149 129h1v10h-13l3-1 1-3 2.375.5c2.507.562 2.507.562 4.625.5l-.062-2.937C148 130 148 130 149 129z" fill="#e4deb4"/><path d="M197 112c5.504-.324 9.437-.533 14 3l-2 3-2.312-1c-2.678-1.174-2.678-1.174-5.687-1l-4-4zm0 2l2 1h-3l1-1z" fill="#dad2a9"/><path d="M203.188 107.438l2.73.309L208 108l-1.937.875c-2.215.953-2.215.953-3.062 3.125h-7l-1-4c3.2-1.067 4.885-.948 8.188-.562z" fill="#291f1b"/><path d="M113 78v2h6v2l-18-1v-2c3.981-1.327 7.85-1.069 12-1z" fill="#c5bb99"/><path d="M52 33c3.821.531 6.062 1.497 9 4l-3 2v2l-8-1c.375-1.937.375-1.937 1-4l2-1-1-2z" fill="#ddd89d"/><path d="M51 32l2 1c0 3.576-1.088 5.053-3 8-6.769-3.446-6.769-3.446-7.937-6.25L42 33l1.75.938c2.093.988 3.995 1.579 6.25 2.063l1-4z" fill="#ecd8aa"/><path d="M20 100c2.453 3.679 2.268 5.623 2.25 10l.016 3.75C22 117 22 117 20 120c-1.198-4.147-.89-7.994-.562-12.25l.158-2.258L20 100z" fill="#2f281f"/><path d="M190 122l9 1-1 4h-9l1-5z" fill="#21201f"/><path d="M178 104c3.063 3.39 3.606 6.273 4.188 10.75l.48 3.547L183 121h-4l.063-2.437c.234-2.496.234-2.496-1.062-3.562-.072-1.853-.084-3.708-.062-5.562l.027-3.066L178 104z" fill="#16111d"/><path d="M99.75 76.875l2.113.027L107 77c-3.151 3.151-5.494 2.984-9.937 3.125C93.933 80.09 91.048 79.762 88 79c3.742-2.45 7.442-2.231 11.75-2.125z" fill="#e4cda7"/><path d="M171 65l1 3-6 2v2h-7c3.49-3.748 6.679-7 12-7z" fill="#d41823"/><path d="M34 61l2 3 1.563 1.875C39.18 68.266 39.606 70.164 40 73h-3l-.687-1.687C34.641 68.368 32.447 66.318 30 64l4-1v-2z" fill="#231a1a"/><path d="M75 51c2 2 2 2 2 6h3v2l7 2-3 2-6.375-3.875-1.828-1.105C73.295 56.491 71.081 55.081 69 53l6-2z" fill="#f1c29d"/><path d="M155 119c2.865 3.239 3.345 5.792 4 10l2 1-1 2h-3l-2-4.875-1.125-2.742C153 122 153 122 153 120l2-1z" fill="#dad6b2"/><path d="M85.25 110.313L87 111l1 7h-3l-2-2h2v-2h-3l-2 4-1-5c3.446-3.077 3.446-3.077 6.25-2.687z" fill="#090814"/><path d="M64 129l5 1v3h2l1.313 1.375c2.044 1.968 4.033 2.692 6.688 3.625v1c-5.666-.231-8.404-1.67-12.617-5.43C65 132 65 132 64 129z" fill="#d9d3b3"/><path d="M98 124c2.395 2.395 2.755 3.658 3 7-1.25 1.813-1.25 1.813-3 3h-3l.938-4.437.527-2.496C97 125 97 125 98 124z" fill="#d5cfaa"/><path d="M88 57c3 2 3 2 4 5l2 1-1 2-7-1-1-4h2l1-3z" fill="#e9dbab"/><path d="M51 42c6.308 3.32 12.308 6.699 18 11l-2 1c-2.164-.996-2.164-.996-4.625-2.437l-2.477-1.434L58 49v-2l-6-1-1-4z" fill="#c22829"/><path d="M16 30l3 1-2.375 2.25c-2.641 2.477-2.641 2.477-3.687 5C12 40 12 40 9.875 40.75L8 41v-6l2.313-.25c3.211-.896 3.981-1.966 5.688-4.75z" fill="#0c041d"/><path d="M165 99c2 3 2 3 2 5h-2v4l3 1v4h-3v5h-1l-.062-7.25-.025-2.066c-.016-3.377.032-6.457 1.088-9.684z" fill="#eadeb4"/><path d="M46 98l1 2 2 1c-.551 4.081-.913 4.913-4 8l-2-9h3v-2z" fill="#342921"/><path d="M34.563 33.938L38 34c1.208 3.623.543 4.641-1 8l-7-7c1-1 1-1 4.563-1.062z" fill="#16110d"/><path d="M166 78c-3.595 2.26-6.566 2.209-10.75 2.125l-3.547-.055L149 80v-2c11.522-1.333 11.522-1.333 17 0z" fill="#e8d9af"/><path d="M70 138l7 1 3.438.563L83 140v2l-5.312.188-2.988.105C72 142 72 142 70.145 140.488L69 139l1-1z" fill="#080709"/><path d="M82 96c-1.25 1.5-1.25 1.5-3 3h-4v3l-5-1c6.5-6.964 6.5-6.964 12-5z" fill="#d2cba3"/><path d="M42 97v3H31l-1 2-1-4c4.386-.702 8.558-1.108 13-1z" fill="#d6cdac"/><path d="M162 95h2v13l-3-2c-.328-2.348-.328-2.348-.25-5.062l.047-2.723C161 96 161 96 162 95z" fill="#2b2214"/><path d="M204 109h6l2 4-2 2-7-3 1-3z" fill="#100710"/><path d="M100 95h2l.625 6.313.352 3.551C103 108 103 108 101 111l-2-1 .5-1.875c.701-4.38.577-8.699.5-13.125z" fill="#1a1320"/><path d="M152 89l3 1c.625 1.938.625 1.938 1 4l1 2-2 4-.625-1.937c-1.27-2.412-1.27-2.412-4.5-2.812L147 95l1.938-1.312c2.33-1.6 2.33-1.6 3.063-4.687z" fill="#191517"/><path d="M134 117h1c.125 7.75.125 7.75-1 10h2v9c-1.903-2.855-2.462-4.419-3.125-7.687l-.508-2.449L132 124h2v-7z" fill="#150f10"/><path d="M153 110v5l-1 1-1 7c-2.062-1.75-2.062-1.75-4-4 .063-2.187.063-2.187 1-4l3-1-1-3c2-1 2-1 3-1z" fill="#e8dead"/><path d="M132 129h2l1 9h-7l4-1-.562-2.875C131 131 131 131 132 129z" fill="#d8d1af"/><path d="M60 97h8c.75 2.25.75 2.25 1 5-1.937 2.313-1.937 2.313-4 4l-3-1 5-7h-7v-1z" fill="#302a21"/><path d="M208 95l3 1-2 7-4-1 1-6 2-1z" fill="#d7d29f"/><path d="M185 63c2 2 2 2 2.313 4.938C187 71 187 71 186 72.875c-3.253 1.83-6.314 1.306-10 1.125 3.188-2.125 5.265-2.502 9-3v-8z" fill="#d5ba9a"/><path d="M111 133h4v2l-2 1-1 6-6 1v-3h4l1-7z" fill="#080303"/><path d="M160 105c2 .938 2 .938 4 3 .365 3.025.229 5.967 0 9-3.002-3.002-3.96-4.958-4.125-9.25L160 105z" fill="#433621"/><path d="M185 73l1 4h6c-2 2-2 2-3.875 2.047L186 78.75l-2.125-.266C182 78 182 78 180 76l5-3z" fill="#22171c"/><path d="M125 94v2h-13v-2c4.611-1.297 8.338-.711 13 0z" fill="#282117"/><path d="M128.25 138.875L132 139l1 3-4 1v-2h-9c3.611-1.806 4.545-2.249 8.25-2.125z" fill="#060205"/><path d="M189 51l-2 1v3l-4 2-2-5c2.709-1.354 5.009-1.065 8-1z" fill="#cac99a"/><path d="M188.688 49.438l2.449.871L193 51c-2.829.809-5.311 1.111-8.25 1.063L181 52v-3c3.479-1.16 4.342-.775 7.688.438zM193 50l2 1z" fill="#070602"/><path d="M79 40c.981 3.053.981 4.947 0 8l-7-4 1.813-.312c2.47-.776 3.51-1.758 5.188-3.687z" fill="#231e20"/><path d="M37 25v1l-11 2-1-3c4.775-1.685 7.447-2.483 12 0z" fill="#181114"/><path d="M181 137l11 3c-2 2-2 2-5.125 2.125L184 142l-1-3h-2v-2z" fill="#211b15"/><path d="M49 139v2H36v-2c4.629-1.016 8.345-.838 13 0z" fill="#e5dcbc"/><path d="M93 126c2.494 4.988 1.888 6.67 1 12h5v1l-7 1 1-14z" fill="#262314"/><path d="M114 113l2 1c.414 2.066.414 2.066.625 4.563l.227 2.504L117 123h-4l1-10z" fill="#352815"/><path d="M26 102h2l3 9h-4l-1-9z" fill="#2b231d"/><path d="M179 99c3 1 3 1 4 3l-1.437 4.625-.871 2.477L180 111h-1V99z" fill="#180e08"/><path d="M168 76v2l2 1-1.871-.219c-5.75-.63-11.345-.875-17.129-.781v-1c5.72-.832 11.222-1.12 17-1z" fill="#ebb795"/><path d="M173 70v2h5c-3.006 3.006-5.824 2.596-10 3 .375-1.937.375-1.937 1-4 2-1 2-1 4-1z" fill="#cd1619"/><path d="M138 140l5.313-.062 2.988-.035C149 140 149 140 152 141l-1 2c-4.921.167-8.503.248-13-2v-1z" fill="#040203"/><path d="M128 138h8v2l6 1c-2.354 1.429-3.48 2.087-6.25 1.625L134 142v-2l-6-1v-1z" fill="#120f0e"/><path d="M91.75 75.813l2.984.082L97 76v1c-5.075 1.263-9.728 2.27-15 2 3.273-2.969 5.381-3.344 9.75-3.187z" fill="#ddb695"/><path d="M187.563 54.938L190 55l-.937 1.625C187.822 59.398 187.409 62 187 65h-1l-1.062-4.437-.598-2.496L184 56c1-1 1-1 3.563-1.062z" fill="#292216"/><path d="M155 127l2 4h-2l-1 6h-2c-.125-5.75-.125-5.75 1-8h2v-2z" fill="#131020"/><path d="M90.563 78.938L93 79l-1 3h3l1 3h-5v-4l-4-1c1-1 1-1 3.563-1.062z" fill="#201c26"/><path d="M73 74l5.938.375 3.34.211L85 75l1 2-6 1v-1l-7-2v-1z" fill="#f4ccb0"/><path d="M162 55l5 2-1 4c-3 0-3 0-4.687-1.5L160 58l2-3z" fill="#140a15"/><path d="M81 47c2 0 2 0 4.438 2.375L88 52l3 2v2c-3.588-1.656-6.838-3.628-10-6v-3z" fill="#1c160f"/><path d="M55 111l3 1-5 7-1-2-3-1 5-1 1-4z" fill="#dad0ac"/><path d="M156 98h3l1 10c-2.925-3.9-3.475-5.383-4-10z" fill="#140a0d"/><path d="M46 71l4 2-1 4h-5l2-6z" fill="#35292c"/><path d="M17 33l2 1-7 9c-1-3-1-3 .25-5.562C14 35 14 35 17 33z" fill="#150f0b"/><path d="M13.188 137.938l2.73.027L18 138c-2.233 2.233-2.919 2.368-5.937 2.75l-2.09.297C8 141 8 141 5 139c3.015-1.005 5.042-1.103 8.188-1.062z" fill="#060306"/><path d="M111 72h3c1.387 1.531 1.387 1.531 2.688 3.5l1.324 1.969L119 79c-3 0-3 0-5.687-2.375C111 74 111 74 111 72z" fill="#272620"/><path d="M178 61h3l-1 9-3-1 1-8z" fill="#ef0828"/><path d="M177 126l1 3h2l1 8-3-1-1-10z" fill="#271c20"/><path d="M183 117h4l1 2 5 2v1c-6.523-.492-6.523-.492-8.937-3.062L183 117z" fill="#dad1b2"/><path d="M58 103l4 2c-1.75 4.875-1.75 4.875-4 6-1.125-5.75-1.125-5.75 0-8z" fill="#d7cea5"/><path d="M176 96h3c.25 7.625.25 7.625-2 11l-1-11z" fill="#cfc8ad"/><path d="M18 96h1c1.102 4.409 1.077 8.484 1 13h-1c-2.857-9.286-2.857-9.286-1-13z" fill="#d7d2a6"/><path d="M117 96h7l-1 4v-2h-2v2l-4-1v-3z" fill="#e7ddb2"/><path d="M94 70c3.674.306 4.781.758 7.313 3.563L103 76h-5v-3h-4v-3z" fill="#db1325"/><path d="M187 52l6 1 1 2-2 2-5-2v-3z" fill="#dcd8b5"/><path d="M62 32h2v2l4 2v5l-4-3v-2l-2-4z" fill="#1d1019"/><path d="M92 138l1 3H83c2.848-2.848 5.036-3 9-3z" fill="#120f0e"/><path d="M22 137h8l-2 6h-2v-5l-4-1z" fill="#040404"/><path d="M213 116l3 2v3h-2v7h-1l-.562-5.437-.316-3.059L212 117l1-1z" fill="#2c2929"/><path d="M191 96l2 1-3 1v3l-3 1-1-4 5-2z" fill="#e4ddb2"/><path d="M199 87h2v5h-6l4-5z" fill="#1d1520"/><path d="M89 88l5 1v5l-4-1-1-5z" fill="#1b1723"/><path d="M69 54c4.431 1.208 6.981 2.517 10 6l-7-2v-2h-3v-2z" fill="#c82225"/><path d="M205 141c-3.442 2.147-5.772 2.099-9.75 1.625l-2.984-.336L190 142v-1c10.558-1.333 10.558-1.333 15 0z" fill="#0a0403"/><path d="M210 136v2l2 1c-1 1-1 1-4.562 1.063L204 140c3.75-4 3.75-4 6-4z" fill="#1c110d"/><path d="M126 100c1.5 1 1.5 1 3 3 .273 2.718.135 5.257 0 8-2.566-3.849-2.551-6.435-3-11z" fill="#0c0b06"/><path d="M82 65l1 2-1 3-6-1v-2l6-2z" fill="#f00b2d"/><path d="M94 59l6 4-1 3-4-1-1-6z" fill="#ced0a8"/><path d="M52 33c3.821.531 6.062 1.497 9 4h-8l-1-4z" fill="#d0cfa6"/><path d="M192 137l-1 3c-4.75-.75-4.75-.75-7-3 5.75-1.125 5.75-1.125 8 0z" fill="#d7d1a9"/><path d="M211 109l5 1v3l-5 1v-5z" fill="#070522"/><path d="M103 97h2c-.75 6.625-.75 6.625-3 10-.125-6.625-.125-6.625 1-10z" fill="#11090a"/><path d="M192 91l10 1v1l-10 1v-3z" fill="#0a0408"/><path d="M19 81h5v3h-8l3-1v-2z" fill="#1d1721"/><path d="M217 71h1l1 7-4 1v-5h2v-3z" fill="#0c0918"/><path d="M72 47l4 1v3l-4 1-2-3 4 1v-2l-2-1z" fill="#ded79f"/><path d="M42 37c3.459 1.249 6.147 2.675 9 5-4.219-.479-6.797-1.166-10-4l1-1z" fill="#c4302b"/><path d="M20 25l4 2v3l-2 1-3-3 1-3z" fill="#110f1a"/><path d="M94 123l3 1c-.75 6.75-.75 6.75-3 9v-10z" fill="#0d0803"/><path d="M151 117c2.36 2.36 2.491 3.779 3 7l-3 2v-9z" fill="#372f19"/><path d="M178 104c2.097 2.36 2.969 3.546 3.188 6.75L181 113h-3v-9z" fill="#544530"/><path d="M83 110l3 1-1.875 1.25c-2.193 1.806-3.053 3.159-4.125 5.75l-1-5c1.813-1.562 1.813-1.562 4-3z" fill="#130c0d"/><path d="M25 103l2 4-3 3h-1c-.125-2.375-.125-2.375 0-5l2-2z" fill="#1e162c"/><path d="M149 72l2 1 1 3-4 2v-2l-2-1 3-3z" fill="#dbbda2"/><path d="M106 68h6l-1 5-5-5z" fill="#1a1214"/><path d="M107 65l3 1h3l-2 3-6-1c1-2 1-2 2-3z" fill="#0b0f16"/><path d="M11 43l2 3-5 6-1-2c.777-1.727.777-1.727 1.938-3.625L11 43z" fill="#b8b0a7"/><path d="M42 26l6 1v3l-7-2 1-2z" fill="#2b2520"/></svg>