<?xml version="1.0" standalone="no"?>
<!DOCTYPE svg PUBLIC "-//W3C//DTD SVG 20010904//EN"
 "http://www.w3.org/TR/2001/REC-SVG-20010904/DTD/svg10.dtd">
<svg version="1.0" xmlns="http://www.w3.org/2000/svg"
 width="1400.000000pt" height="500.000000pt" viewBox="0 0 1400.000000 500.000000"
 preserveAspectRatio="xMidYMid meet">

<g transform="translate(0.000000,500.000000) scale(0.100000,-0.100000)"
fill="#000000" stroke="none">
<path d="M0 2500 l0 -2500 7000 0 7000 0 0 2500 0 2500 -7000 0 -7000 0 0
-2500z m5325 1882 c162 -55 440 -182 572 -261 26 -15 98 -58 158 -93 456 -269
965 -639 1379 -1003 170 -148 406 -377 400 -387 -4 -6 -30 -7 -63 -4 -31 4
-126 11 -211 17 -211 14 -368 27 -470 38 -47 6 -152 17 -235 26 -489 53 -1064
151 -1255 215 -30 10 -86 28 -125 40 -38 12 -111 41 -161 65 -107 52 -160 104
-195 191 -22 54 -23 73 -23 239 0 133 4 198 16 250 32 137 69 258 98 329 17
39 30 77 30 84 0 41 -180 64 -304 38 -187 -38 -424 -214 -658 -486 -31 -36
-58 -63 -62 -60 -9 9 105 228 169 325 108 164 282 325 425 395 120 58 180 70
325 66 98 -2 145 -8 190 -24z m4794 -783 c76 -16 188 -94 259 -180 56 -68 149
-225 140 -235 -3 -2 -35 30 -72 71 -150 167 -316 252 -434 224 -74 -19 -74
-19 -33 -122 44 -108 61 -185 61 -276 0 -85 -15 -139 -48 -174 -32 -35 -118
-79 -187 -97 -27 -7 -70 -19 -95 -27 -73 -24 -315 -65 -570 -98 -184 -24 -594
-55 -602 -47 -9 9 60 78 186 187 37 33 73 65 80 70 150 138 518 399 745 529
288 165 424 207 570 175z m588 -1403 c129 -39 125 -34 117 -124 -3 -42 -9 -93
-13 -112 -4 -19 -9 -64 -10 -99 -3 -79 -16 -115 -37 -107 -101 39 -347 53
-416 23 -70 -30 -73 -85 -5 -113 27 -10 88 -19 167 -24 76 -4 146 -14 178 -25
71 -24 145 -92 185 -169 31 -59 32 -65 32 -186 0 -108 -3 -133 -24 -185 -40
-103 -54 -126 -116 -189 -109 -110 -262 -166 -453 -166 -92 0 -218 22 -277 49
-11 5 -57 24 -102 41 -93 36 -91 32 -74 144 5 34 15 114 22 179 6 64 16 117
21 117 5 0 25 -8 46 -18 55 -28 167 -59 257 -72 136 -20 245 14 245 75 0 47
-70 74 -190 75 -150 0 -283 67 -350 175 -75 122 -78 322 -8 460 57 109 180
207 318 250 95 30 132 34 270 29 103 -3 154 -10 217 -28z m-6063 -31 c0 -16
-11 -122 -23 -235 -25 -237 -47 -590 -38 -614 6 -14 31 -16 201 -16 107 0 197
-3 199 -7 3 -5 1 -37 -3 -73 -5 -36 -13 -119 -20 -185 -6 -66 -15 -133 -18
-150 l-8 -30 -134 -12 c-74 -6 -238 -18 -365 -27 -126 -9 -253 -18 -282 -21
-32 -3 -54 -1 -59 6 -7 11 13 1053 25 1264 l6 120 150 5 c83 3 200 5 260 5
l110 0 -1 -30z m2334 11 c51 -16 52 -18 51 -54 0 -20 -10 -116 -22 -212 l-23
-175 -79 3 c-88 4 -192 -16 -253 -47 -141 -73 -204 -246 -140 -385 14 -33 89
-83 135 -92 76 -14 193 8 300 57 24 10 47 19 53 19 5 0 10 -21 10 -47 0 -67
-28 -402 -34 -412 -5 -7 -60 -28 -156 -59 -100 -32 -249 -40 -340 -18 -226 54
-387 199 -456 412 -25 78 -28 103 -27 204 1 174 35 318 105 453 32 62 65 104
133 172 101 101 173 144 309 182 72 20 98 22 231 19 103 -2 166 -9 203 -20z
m1988 -26 c13 -25 60 -121 105 -215 45 -93 108 -225 140 -293 33 -67 59 -127
59 -132 0 -6 4 -10 9 -10 13 0 20 93 27 387 l7 272 51 5 c97 10 416 15 421 7
2 -5 0 -78 -5 -162 -15 -234 -38 -655 -51 -934 -6 -137 -15 -254 -20 -259 -4
-5 -50 -13 -101 -18 -51 -5 -138 -13 -193 -18 -55 -5 -130 -13 -166 -16 l-65
-6 -23 58 c-13 33 -36 93 -51 134 -16 41 -52 134 -80 205 -29 72 -66 169 -84
217 -17 48 -35 90 -38 94 -11 11 -17 -50 -37 -383 -11 -178 -22 -327 -26 -333
-10 -16 -442 -13 -447 3 -3 6 -4 32 -3 57 3 67 26 828 34 1115 l6 250 165 11
c91 6 205 11 254 10 l89 -1 23 -45z m-977 11 c6 -10 33 -97 60 -192 27 -96 84
-291 126 -434 42 -143 85 -292 96 -332 10 -40 30 -107 43 -150 41 -133 56
-190 56 -216 0 -23 -4 -25 -62 -31 -82 -9 -198 -24 -273 -36 -33 -5 -80 -11
-105 -12 l-44 -3 -19 60 c-11 33 -27 83 -36 110 l-16 50 -111 3 c-129 3 -116
14 -144 -121 -10 -49 -22 -93 -27 -98 -5 -5 -47 -5 -103 1 -52 5 -162 16 -244
24 -82 9 -153 19 -157 23 -4 4 9 60 28 123 19 63 55 183 79 265 83 276 102
339 138 455 32 107 62 204 121 404 13 43 28 83 33 88 8 8 114 15 524 37 17 0
31 -6 37 -18z m-2637 -66 c6 -27 19 -96 59 -317 7 -38 16 -68 19 -68 6 0 33
44 110 179 9 14 44 74 80 134 74 124 44 114 275 97 264 -20 267 -20 260 -38
-6 -17 -67 -104 -170 -245 -33 -45 -111 -154 -174 -242 -63 -88 -132 -183
-153 -212 l-40 -52 -8 -133 c-5 -73 -11 -217 -15 -320 l-7 -188 -238 0 c-213
0 -239 2 -242 16 -2 9 1 147 6 307 8 288 8 291 -14 356 -13 36 -33 89 -46 116
-12 28 -33 82 -47 120 -14 39 -57 151 -96 249 -39 99 -71 188 -71 197 0 20 9
22 165 40 55 6 141 17 190 24 131 18 148 16 157 -20z"/>
<path d="M5320 4033 c-39 -88 -49 -117 -79 -234 -56 -216 -65 -403 -26 -528
25 -80 54 -102 235 -184 39 -17 225 -72 330 -97 109 -25 404 -81 502 -95 117
-16 204 -28 310 -45 56 -9 647 -70 818 -85 36 -3 88 -7 115 -10 l50 -4 -30 24
c-16 14 -35 25 -40 25 -6 0 -41 18 -78 40 -38 22 -107 61 -155 86 -80 43 -161
90 -347 198 -87 51 -314 188 -400 241 -36 22 -113 70 -172 106 -60 37 -247
154 -418 261 -295 185 -570 348 -586 348 -5 0 -18 -21 -29 -47z"/>
<path d="M9815 3386 c-11 -7 -117 -73 -235 -146 -118 -73 -260 -161 -315 -195
-118 -73 -214 -131 -347 -209 -54 -32 -98 -62 -98 -68 0 -10 100 -7 190 7 19
3 91 12 160 20 354 43 661 114 731 168 21 16 39 72 39 121 0 77 -76 317 -99
315 -3 0 -15 -6 -26 -13z"/>
<path d="M7691 1573 c-17 -63 -51 -240 -51 -262 0 -19 6 -21 64 -21 36 0 67 4
71 10 3 5 -3 44 -13 87 -11 43 -25 111 -32 151 -7 39 -17 72 -21 72 -5 0 -13
-17 -18 -37z"/>
</g>
</svg>
